<?xml version="1.0" encoding="UTF-8" standalone="no"?>
<!DOCTYPE svg PUBLIC "-//W3C//DTD SVG 1.1//EN"
 "http://www.w3.org/Graphics/SVG/1.1/DTD/svg11.dtd">
<!-- Generated by graphviz version 14.1.2 (20260124.0452)
 -->
<!-- Pages: 1 -->
<svg width="745pt" height="260pt"
 viewBox="0.00 0.00 745.00 260.00" xmlns="http://www.w3.org/2000/svg" xmlns:xlink="http://www.w3.org/1999/xlink">
<g id="graph0" class="graph" transform="scale(1 1) rotate(0) translate(4 256)">
<polygon fill="white" stroke="none" points="-4,4 -4,-256 740.82,-256 740.82,4 -4,4"/>
<!-- ts&#45;gateway&#45;service -->
<g id="node1" class="node">
<title>ts&#45;gateway&#45;service</title>
<ellipse fill="none" stroke="black" cx="80.52" cy="-180" rx="80.01" ry="18"/>
<text xml:space="preserve" text-anchor="middle" x="80.52" y="-174.95" font-family="Times New Roman,serif" font-size="14.00">ts&#45;gateway&#45;service</text>
</g>
<!-- ts&#45;inside&#45;payment&#45;service -->
<g id="node4" class="node">
<title>ts&#45;inside&#45;payment&#45;service</title>
<ellipse fill="none" stroke="black" cx="336.68" cy="-126" rx="106.63" ry="18"/>
<text xml:space="preserve" text-anchor="middle" x="336.68" y="-120.95" font-family="Times New Roman,serif" font-size="14.00">ts&#45;inside&#45;payment&#45;service</text>
</g>
<!-- ts&#45;gateway&#45;service&#45;&gt;ts&#45;inside&#45;payment&#45;service -->
<g id="edge3" class="edge">
<title>ts&#45;gateway&#45;service&#45;&gt;ts&#45;inside&#45;payment&#45;service</title>
<path fill="none" stroke="black" d="M139.83,-167.61C174.78,-160.19 219.65,-150.65 257.63,-142.58"/>
<polygon fill="black" stroke="black" points="258.12,-146.06 267.18,-140.55 256.67,-139.21 258.12,-146.06"/>
<text xml:space="preserve" text-anchor="middle" x="195.55" y="-161.04" font-family="Times New Roman,serif" font-size="14.00">POST</text>
</g>
<!-- ts&#45;verification&#45;code&#45;service -->
<g id="node2" class="node">
<title>ts&#45;verification&#45;code&#45;service</title>
<ellipse fill="none" stroke="black" cx="624.56" cy="-234" rx="112.26" ry="18"/>
<text xml:space="preserve" text-anchor="middle" x="624.56" y="-228.95" font-family="Times New Roman,serif" font-size="14.00">ts&#45;verification&#45;code&#45;service</text>
</g>
<!-- ts&#45;preserve&#45;service -->
<g id="node3" class="node">
<title>ts&#45;preserve&#45;service</title>
<ellipse fill="none" stroke="black" cx="80.52" cy="-126" rx="80.52" ry="18"/>
<text xml:space="preserve" text-anchor="middle" x="80.52" y="-120.95" font-family="Times New Roman,serif" font-size="14.00">ts&#45;preserve&#45;service</text>
</g>
<!-- ts&#45;preserve&#45;service&#45;&gt;ts&#45;inside&#45;payment&#45;service -->
<g id="edge4" class="edge">
<title>ts&#45;preserve&#45;service&#45;&gt;ts&#45;inside&#45;payment&#45;service</title>
<path fill="none" stroke="black" d="M161.24,-126C179.37,-126 199.01,-126 218.34,-126"/>
<polygon fill="black" stroke="black" points="218.16,-129.5 228.16,-126 218.16,-122.5 218.16,-129.5"/>
<text xml:space="preserve" text-anchor="middle" x="195.55" y="-129.2" font-family="Times New Roman,serif" font-size="14.00">Pod</text>
</g>
<!-- ts&#45;inside&#45;payment&#45;service&#45;&gt;ts&#45;verification&#45;code&#45;service -->
<g id="edge8" class="edge">
<title>ts&#45;inside&#45;payment&#45;service&#45;&gt;ts&#45;verification&#45;code&#45;service</title>
<path fill="none" stroke="black" d="M370.35,-143.52C404.84,-161.45 461.19,-189.14 512.3,-207 522.33,-210.5 533.02,-213.72 543.65,-216.62"/>
<polygon fill="black" stroke="black" points="542.67,-219.98 553.23,-219.14 544.45,-213.21 542.67,-219.98"/>
<text xml:space="preserve" text-anchor="middle" x="477.8" y="-202.99" font-family="Times New Roman,serif" font-size="14.00">Pod</text>
</g>
<!-- ts&#45;auth&#45;service -->
<g id="node5" class="node">
<title>ts&#45;auth&#45;service</title>
<ellipse fill="none" stroke="black" cx="624.56" cy="-180" rx="65.17" ry="18"/>
<text xml:space="preserve" text-anchor="middle" x="624.56" y="-174.95" font-family="Times New Roman,serif" font-size="14.00">ts&#45;auth&#45;service</text>
</g>
<!-- ts&#45;inside&#45;payment&#45;service&#45;&gt;ts&#45;auth&#45;service -->
<g id="edge1" class="edge">
<title>ts&#45;inside&#45;payment&#45;service&#45;&gt;ts&#45;auth&#45;service</title>
<path fill="none" stroke="black" d="M409.45,-139.56C455.25,-148.21 514.13,-159.33 558.55,-167.72"/>
<polygon fill="black" stroke="black" points="557.84,-171.15 568.32,-169.57 559.14,-164.27 557.84,-171.15"/>
<text xml:space="preserve" text-anchor="middle" x="477.8" y="-157.82" font-family="Times New Roman,serif" font-size="14.00">Pod</text>
</g>
<!-- ts&#45;order&#45;other&#45;service -->
<g id="node6" class="node">
<title>ts&#45;order&#45;other&#45;service</title>
<ellipse fill="none" stroke="black" cx="624.56" cy="-126" rx="90.76" ry="18"/>
<text xml:space="preserve" text-anchor="middle" x="624.56" y="-120.95" font-family="Times New Roman,serif" font-size="14.00">ts&#45;order&#45;other&#45;service</text>
</g>
<!-- ts&#45;inside&#45;payment&#45;service&#45;&gt;ts&#45;order&#45;other&#45;service -->
<g id="edge5" class="edge">
<title>ts&#45;inside&#45;payment&#45;service&#45;&gt;ts&#45;order&#45;other&#45;service</title>
<path fill="none" stroke="black" d="M443.72,-126C469.47,-126 496.93,-126 522.44,-126"/>
<polygon fill="black" stroke="black" points="522.11,-129.5 532.11,-126 522.11,-122.5 522.11,-129.5"/>
<text xml:space="preserve" text-anchor="middle" x="477.8" y="-129.2" font-family="Times New Roman,serif" font-size="14.00">GET</text>
</g>
<!-- ts&#45;payment&#45;service -->
<g id="node7" class="node">
<title>ts&#45;payment&#45;service</title>
<ellipse fill="none" stroke="black" cx="624.56" cy="-72" rx="81.55" ry="18"/>
<text xml:space="preserve" text-anchor="middle" x="624.56" y="-66.95" font-family="Times New Roman,serif" font-size="14.00">ts&#45;payment&#45;service</text>
</g>
<!-- ts&#45;inside&#45;payment&#45;service&#45;&gt;ts&#45;payment&#45;service -->
<g id="edge7" class="edge">
<title>ts&#45;inside&#45;payment&#45;service&#45;&gt;ts&#45;payment&#45;service</title>
<path fill="none" stroke="black" d="M409.45,-112.44C452.42,-104.33 506.9,-94.04 550.16,-85.86"/>
<polygon fill="black" stroke="black" points="550.8,-89.3 559.98,-84.01 549.5,-82.43 550.8,-89.3"/>
<text xml:space="preserve" text-anchor="middle" x="477.8" y="-105.43" font-family="Times New Roman,serif" font-size="14.00">POST</text>
</g>
<!-- ts&#45;order&#45;service -->
<g id="node9" class="node">
<title>ts&#45;order&#45;service</title>
<ellipse fill="none" stroke="black" cx="624.56" cy="-18" rx="68.75" ry="18"/>
<text xml:space="preserve" text-anchor="middle" x="624.56" y="-12.95" font-family="Times New Roman,serif" font-size="14.00">ts&#45;order&#45;service</text>
</g>
<!-- ts&#45;inside&#45;payment&#45;service&#45;&gt;ts&#45;order&#45;service -->
<g id="edge6" class="edge">
<title>ts&#45;inside&#45;payment&#45;service&#45;&gt;ts&#45;order&#45;service</title>
<path fill="none" stroke="black" d="M370.35,-108.48C404.84,-90.55 461.19,-62.86 512.3,-45 526.95,-39.88 543.01,-35.37 558.25,-31.58"/>
<polygon fill="black" stroke="black" points="558.81,-35.05 567.71,-29.3 557.17,-28.24 558.81,-35.05"/>
<text xml:space="preserve" text-anchor="middle" x="477.8" y="-67.46" font-family="Times New Roman,serif" font-size="14.00">GET</text>
</g>
<!-- ts&#45;cancel&#45;service -->
<g id="node8" class="node">
<title>ts&#45;cancel&#45;service</title>
<ellipse fill="none" stroke="black" cx="80.52" cy="-72" rx="72.85" ry="18"/>
<text xml:space="preserve" text-anchor="middle" x="80.52" y="-66.95" font-family="Times New Roman,serif" font-size="14.00">ts&#45;cancel&#45;service</text>
</g>
<!-- ts&#45;cancel&#45;service&#45;&gt;ts&#45;inside&#45;payment&#45;service -->
<g id="edge2" class="edge">
<title>ts&#45;cancel&#45;service&#45;&gt;ts&#45;inside&#45;payment&#45;service</title>
<path fill="none" stroke="black" d="M136.98,-83.78C172.29,-91.28 218.54,-101.11 257.54,-109.4"/>
<polygon fill="black" stroke="black" points="256.6,-112.78 267.11,-111.43 258.06,-105.93 256.6,-112.78"/>
<text xml:space="preserve" text-anchor="middle" x="195.55" y="-102.2" font-family="Times New Roman,serif" font-size="14.00">GET</text>
</g>
</g>
</svg>
