<?xml version="1.0" encoding="UTF-8" standalone="no"?>
<!DOCTYPE svg PUBLIC "-//W3C//DTD SVG 1.1//EN"
 "http://www.w3.org/Graphics/SVG/1.1/DTD/svg11.dtd">
<!-- Generated by graphviz version 14.1.2 (20260124.0452)
 -->
<!-- Pages: 1 -->
<svg width="702pt" height="638pt"
 viewBox="0.00 0.00 702.00 638.00" xmlns="http://www.w3.org/2000/svg" xmlns:xlink="http://www.w3.org/1999/xlink">
<g id="graph0" class="graph" transform="scale(1 1) rotate(0) translate(4 634)">
<polygon fill="white" stroke="none" points="-4,4 -4,-634 697.82,-634 697.82,4 -4,4"/>
<!-- ts&#45;order&#45;service -->
<g id="node1" class="node">
<title>ts&#45;order&#45;service</title>
<ellipse fill="none" stroke="black" cx="587.2" cy="-612" rx="68.75" ry="18"/>
<text xml:space="preserve" text-anchor="middle" x="587.2" y="-606.95" font-family="Times New Roman,serif" font-size="14.00">ts&#45;order&#45;service</text>
</g>
<!-- ts&#45;price&#45;service -->
<g id="node2" class="node">
<title>ts&#45;price&#45;service</title>
<ellipse fill="none" stroke="black" cx="587.2" cy="-558" rx="67.73" ry="18"/>
<text xml:space="preserve" text-anchor="middle" x="587.2" y="-552.95" font-family="Times New Roman,serif" font-size="14.00">ts&#45;price&#45;service</text>
</g>
<!-- ts&#45;food&#45;service -->
<g id="node3" class="node">
<title>ts&#45;food&#45;service</title>
<ellipse fill="none" stroke="black" cx="587.2" cy="-504" rx="66.19" ry="18"/>
<text xml:space="preserve" text-anchor="middle" x="587.2" y="-498.95" font-family="Times New Roman,serif" font-size="14.00">ts&#45;food&#45;service</text>
</g>
<!-- ts&#45;cancel&#45;service -->
<g id="node4" class="node">
<title>ts&#45;cancel&#45;service</title>
<ellipse fill="none" stroke="black" cx="587.2" cy="-450" rx="72.85" ry="18"/>
<text xml:space="preserve" text-anchor="middle" x="587.2" y="-444.95" font-family="Times New Roman,serif" font-size="14.00">ts&#45;cancel&#45;service</text>
</g>
<!-- ts&#45;preserve&#45;service -->
<g id="node5" class="node">
<title>ts&#45;preserve&#45;service</title>
<ellipse fill="none" stroke="black" cx="331.05" cy="-315" rx="80.52" ry="18"/>
<text xml:space="preserve" text-anchor="middle" x="331.05" y="-309.95" font-family="Times New Roman,serif" font-size="14.00">ts&#45;preserve&#45;service</text>
</g>
<!-- ts&#45;preserve&#45;service&#45;&gt;ts&#45;order&#45;service -->
<g id="edge8" class="edge">
<title>ts&#45;preserve&#45;service&#45;&gt;ts&#45;order&#45;service</title>
<path fill="none" stroke="black" d="M337.46,-333.41C349.66,-372.97 381.97,-467.96 429.57,-536 447.59,-561.76 453.1,-569.71 480.57,-585 491.7,-591.19 504.28,-596 516.77,-599.71"/>
<polygon fill="black" stroke="black" points="515.66,-603.04 526.23,-602.3 517.51,-596.29 515.66,-603.04"/>
<text xml:space="preserve" text-anchor="middle" x="446.07" y="-576.53" font-family="Times New Roman,serif" font-size="14.00">POST</text>
</g>
<!-- ts&#45;preserve&#45;service&#45;&gt;ts&#45;price&#45;service -->
<g id="edge10" class="edge">
<title>ts&#45;preserve&#45;service&#45;&gt;ts&#45;price&#45;service</title>
<path fill="none" stroke="black" d="M338.04,-333.33C353.46,-377.11 399.15,-487.35 480.57,-531 491.99,-537.12 504.85,-541.9 517.57,-545.61"/>
<polygon fill="black" stroke="black" points="516.65,-548.99 527.21,-548.22 518.47,-542.23 516.65,-548.99"/>
<text xml:space="preserve" text-anchor="middle" x="446.07" y="-519.09" font-family="Times New Roman,serif" font-size="14.00">Pod</text>
</g>
<!-- ts&#45;preserve&#45;service&#45;&gt;ts&#45;food&#45;service -->
<g id="edge6" class="edge">
<title>ts&#45;preserve&#45;service&#45;&gt;ts&#45;food&#45;service</title>
<path fill="none" stroke="black" d="M342.61,-333.08C363.85,-367.59 415.31,-442.47 480.57,-477 492.33,-483.22 505.6,-488.07 518.66,-491.81"/>
<polygon fill="black" stroke="black" points="517.52,-495.13 528.09,-494.32 519.32,-488.37 517.52,-495.13"/>
<text xml:space="preserve" text-anchor="middle" x="446.07" y="-467.98" font-family="Times New Roman,serif" font-size="14.00">POST</text>
</g>
<!-- ts&#45;preserve&#45;service&#45;&gt;ts&#45;cancel&#45;service -->
<g id="edge4" class="edge">
<title>ts&#45;preserve&#45;service&#45;&gt;ts&#45;cancel&#45;service</title>
<path fill="none" stroke="black" d="M351.16,-332.65C378.05,-356.55 429.5,-398.99 480.57,-423 491.96,-428.36 504.57,-432.75 516.98,-436.33"/>
<polygon fill="black" stroke="black" points="515.78,-439.63 526.35,-438.86 517.61,-432.87 515.78,-439.63"/>
<text xml:space="preserve" text-anchor="middle" x="446.07" y="-414.74" font-family="Times New Roman,serif" font-size="14.00">GET</text>
</g>
<!-- ts&#45;seat&#45;service -->
<g id="node6" class="node">
<title>ts&#45;seat&#45;service</title>
<ellipse fill="none" stroke="black" cx="587.2" cy="-396" rx="63.63" ry="18"/>
<text xml:space="preserve" text-anchor="middle" x="587.2" y="-390.95" font-family="Times New Roman,serif" font-size="14.00">ts&#45;seat&#45;service</text>
</g>
<!-- ts&#45;preserve&#45;service&#45;&gt;ts&#45;seat&#45;service -->
<g id="edge11" class="edge">
<title>ts&#45;preserve&#45;service&#45;&gt;ts&#45;seat&#45;service</title>
<path fill="none" stroke="black" d="M372.34,-330.87C402.01,-342.26 443.48,-357.55 480.57,-369 495.13,-373.49 510.97,-377.83 525.85,-381.67"/>
<polygon fill="black" stroke="black" points="524.99,-385.06 535.54,-384.12 526.71,-378.27 524.99,-385.06"/>
<text xml:space="preserve" text-anchor="middle" x="446.07" y="-365.65" font-family="Times New Roman,serif" font-size="14.00">POST</text>
</g>
<!-- ts&#45;contacts&#45;service -->
<g id="node7" class="node">
<title>ts&#45;contacts&#45;service</title>
<ellipse fill="none" stroke="black" cx="587.2" cy="-342" rx="79.5" ry="18"/>
<text xml:space="preserve" text-anchor="middle" x="587.2" y="-336.95" font-family="Times New Roman,serif" font-size="14.00">ts&#45;contacts&#45;service</text>
</g>
<!-- ts&#45;preserve&#45;service&#45;&gt;ts&#45;contacts&#45;service -->
<g id="edge5" class="edge">
<title>ts&#45;preserve&#45;service&#45;&gt;ts&#45;contacts&#45;service</title>
<path fill="none" stroke="black" d="M404.54,-322.7C435.38,-325.98 471.52,-329.82 503.4,-333.2"/>
<polygon fill="black" stroke="black" points="502.67,-336.65 512.99,-334.22 503.41,-329.69 502.67,-336.65"/>
<text xml:space="preserve" text-anchor="middle" x="446.07" y="-331.7" font-family="Times New Roman,serif" font-size="14.00">GET</text>
</g>
<!-- ts&#45;travel&#45;service -->
<g id="node8" class="node">
<title>ts&#45;travel&#45;service</title>
<ellipse fill="none" stroke="black" cx="587.2" cy="-288" rx="70.29" ry="18"/>
<text xml:space="preserve" text-anchor="middle" x="587.2" y="-282.95" font-family="Times New Roman,serif" font-size="14.00">ts&#45;travel&#45;service</text>
</g>
<!-- ts&#45;preserve&#45;service&#45;&gt;ts&#45;travel&#45;service -->
<g id="edge13" class="edge">
<title>ts&#45;preserve&#45;service&#45;&gt;ts&#45;travel&#45;service</title>
<path fill="none" stroke="black" d="M404.54,-307.3C437.75,-303.77 477.12,-299.59 510.69,-296.02"/>
<polygon fill="black" stroke="black" points="510.76,-299.53 520.34,-295 510.02,-292.57 510.76,-299.53"/>
<text xml:space="preserve" text-anchor="middle" x="446.07" y="-307.12" font-family="Times New Roman,serif" font-size="14.00">POST</text>
</g>
<!-- ts&#45;inside&#45;payment&#45;service -->
<g id="node9" class="node">
<title>ts&#45;inside&#45;payment&#45;service</title>
<ellipse fill="none" stroke="black" cx="587.2" cy="-234" rx="106.63" ry="18"/>
<text xml:space="preserve" text-anchor="middle" x="587.2" y="-228.95" font-family="Times New Roman,serif" font-size="14.00">ts&#45;inside&#45;payment&#45;service</text>
</g>
<!-- ts&#45;preserve&#45;service&#45;&gt;ts&#45;inside&#45;payment&#45;service -->
<g id="edge7" class="edge">
<title>ts&#45;preserve&#45;service&#45;&gt;ts&#45;inside&#45;payment&#45;service</title>
<path fill="none" stroke="black" d="M372.34,-299.13C402.01,-287.74 443.48,-272.45 480.57,-261 491.01,-257.78 502.12,-254.63 513.06,-251.7"/>
<polygon fill="black" stroke="black" points="513.67,-255.15 522.45,-249.22 511.89,-248.39 513.67,-255.15"/>
<text xml:space="preserve" text-anchor="middle" x="446.07" y="-280.66" font-family="Times New Roman,serif" font-size="14.00">Pod</text>
</g>
<!-- ts&#45;security&#45;service -->
<g id="node10" class="node">
<title>ts&#45;security&#45;service</title>
<ellipse fill="none" stroke="black" cx="587.2" cy="-180" rx="78.48" ry="18"/>
<text xml:space="preserve" text-anchor="middle" x="587.2" y="-174.95" font-family="Times New Roman,serif" font-size="14.00">ts&#45;security&#45;service</text>
</g>
<!-- ts&#45;preserve&#45;service&#45;&gt;ts&#45;security&#45;service -->
<g id="edge12" class="edge">
<title>ts&#45;preserve&#45;service&#45;&gt;ts&#45;security&#45;service</title>
<path fill="none" stroke="black" d="M351.16,-297.35C378.05,-273.45 429.5,-231.01 480.57,-207 491.15,-202.03 502.77,-197.88 514.32,-194.45"/>
<polygon fill="black" stroke="black" points="515.18,-197.85 523.87,-191.79 513.3,-191.1 515.18,-197.85"/>
<text xml:space="preserve" text-anchor="middle" x="446.07" y="-237.53" font-family="Times New Roman,serif" font-size="14.00">GET</text>
</g>
<!-- ts&#45;preserve&#45;other&#45;service -->
<g id="node11" class="node">
<title>ts&#45;preserve&#45;other&#45;service</title>
<ellipse fill="none" stroke="black" cx="587.2" cy="-126" rx="102.53" ry="18"/>
<text xml:space="preserve" text-anchor="middle" x="587.2" y="-120.95" font-family="Times New Roman,serif" font-size="14.00">ts&#45;preserve&#45;other&#45;service</text>
</g>
<!-- ts&#45;preserve&#45;service&#45;&gt;ts&#45;preserve&#45;other&#45;service -->
<g id="edge9" class="edge">
<title>ts&#45;preserve&#45;service&#45;&gt;ts&#45;preserve&#45;other&#45;service</title>
<path fill="none" stroke="black" d="M342.59,-296.89C363.8,-262.32 415.21,-187.35 480.57,-153 488.17,-149.01 496.39,-145.58 504.78,-142.65"/>
<polygon fill="black" stroke="black" points="505.58,-146.07 514.01,-139.65 503.42,-139.41 505.58,-146.07"/>
<text xml:space="preserve" text-anchor="middle" x="446.07" y="-190.5" font-family="Times New Roman,serif" font-size="14.00">Pod</text>
</g>
<!-- ts&#45;user&#45;service -->
<g id="node12" class="node">
<title>ts&#45;user&#45;service</title>
<ellipse fill="none" stroke="black" cx="587.2" cy="-72" rx="64.66" ry="18"/>
<text xml:space="preserve" text-anchor="middle" x="587.2" y="-66.95" font-family="Times New Roman,serif" font-size="14.00">ts&#45;user&#45;service</text>
</g>
<!-- ts&#45;preserve&#45;service&#45;&gt;ts&#45;user&#45;service -->
<g id="edge14" class="edge">
<title>ts&#45;preserve&#45;service&#45;&gt;ts&#45;user&#45;service</title>
<path fill="none" stroke="black" d="M338.02,-296.64C353.41,-252.8 399.03,-142.43 480.57,-99 492.51,-92.64 506.02,-87.73 519.29,-83.95"/>
<polygon fill="black" stroke="black" points="520.1,-87.35 528.88,-81.42 518.32,-80.59 520.1,-87.35"/>
<text xml:space="preserve" text-anchor="middle" x="446.07" y="-140.56" font-family="Times New Roman,serif" font-size="14.00">GET</text>
</g>
<!-- ts&#45;auth&#45;service -->
<g id="node13" class="node">
<title>ts&#45;auth&#45;service</title>
<ellipse fill="none" stroke="black" cx="587.2" cy="-18" rx="65.17" ry="18"/>
<text xml:space="preserve" text-anchor="middle" x="587.2" y="-12.95" font-family="Times New Roman,serif" font-size="14.00">ts&#45;auth&#45;service</text>
</g>
<!-- ts&#45;preserve&#45;service&#45;&gt;ts&#45;auth&#45;service -->
<g id="edge3" class="edge">
<title>ts&#45;preserve&#45;service&#45;&gt;ts&#45;auth&#45;service</title>
<path fill="none" stroke="black" d="M337.34,-296.82C349.39,-257.33 381.61,-161.74 429.57,-93.5 447.56,-67.91 453.2,-60.14 480.57,-45 492.28,-38.52 505.58,-33.56 518.7,-29.78"/>
<polygon fill="black" stroke="black" points="519.41,-33.21 528.17,-27.26 517.61,-26.45 519.41,-33.21"/>
<text xml:space="preserve" text-anchor="middle" x="446.07" y="-96.7" font-family="Times New Roman,serif" font-size="14.00">Pod</text>
</g>
<!-- ts&#45;order&#45;other&#45;service -->
<g id="node14" class="node">
<title>ts&#45;order&#45;other&#45;service</title>
<ellipse fill="none" stroke="black" cx="90.76" cy="-342" rx="90.76" ry="18"/>
<text xml:space="preserve" text-anchor="middle" x="90.76" y="-336.95" font-family="Times New Roman,serif" font-size="14.00">ts&#45;order&#45;other&#45;service</text>
</g>
<!-- ts&#45;order&#45;other&#45;service&#45;&gt;ts&#45;preserve&#45;service -->
<g id="edge2" class="edge">
<title>ts&#45;order&#45;other&#45;service&#45;&gt;ts&#45;preserve&#45;service</title>
<path fill="none" stroke="black" d="M170.44,-333.08C195.01,-330.3 222.19,-327.22 247.04,-324.4"/>
<polygon fill="black" stroke="black" points="247.24,-327.91 256.78,-323.3 246.45,-320.95 247.24,-327.91"/>
<text xml:space="preserve" text-anchor="middle" x="216.02" y="-332.51" font-family="Times New Roman,serif" font-size="14.00">Pod</text>
</g>
<!-- ts&#45;gateway&#45;service -->
<g id="node15" class="node">
<title>ts&#45;gateway&#45;service</title>
<ellipse fill="none" stroke="black" cx="90.76" cy="-288" rx="80.01" ry="18"/>
<text xml:space="preserve" text-anchor="middle" x="90.76" y="-282.95" font-family="Times New Roman,serif" font-size="14.00">ts&#45;gateway&#45;service</text>
</g>
<!-- ts&#45;gateway&#45;service&#45;&gt;ts&#45;preserve&#45;service -->
<g id="edge1" class="edge">
<title>ts&#45;gateway&#45;service&#45;&gt;ts&#45;preserve&#45;service</title>
<path fill="none" stroke="black" d="M163.38,-295.78C185.55,-298.22 210.05,-300.94 232.52,-303.5 237.52,-304.07 242.65,-304.66 247.83,-305.26"/>
<polygon fill="black" stroke="black" points="247.37,-308.73 257.71,-306.41 248.18,-301.78 247.37,-308.73"/>
<text xml:space="preserve" text-anchor="middle" x="216.02" y="-306.7" font-family="Times New Roman,serif" font-size="14.00">POST</text>
</g>
</g>
</svg>
