<?xml version="1.0" encoding="UTF-8" standalone="no"?>
<!DOCTYPE svg PUBLIC "-//W3C//DTD SVG 1.1//EN"
 "http://www.w3.org/Graphics/SVG/1.1/DTD/svg11.dtd">
<!-- Generated by graphviz version 14.1.2 (20260124.0452)
 -->
<!-- Pages: 1 -->
<svg width="591pt" height="111pt"
 viewBox="0.00 0.00 591.00 111.00" xmlns="http://www.w3.org/2000/svg" xmlns:xlink="http://www.w3.org/1999/xlink">
<g id="graph0" class="graph" transform="scale(1 1) rotate(0) translate(4 107)">
<polygon fill="white" stroke="none" points="-4,4 -4,-107 586.53,-107 586.53,4 -4,4"/>
<!-- ts&#45;route&#45;service -->
<g id="node1" class="node">
<title>ts&#45;route&#45;service</title>
<ellipse fill="none" stroke="black" cx="86.15" cy="-85" rx="68.24" ry="18"/>
<text xml:space="preserve" text-anchor="middle" x="86.15" y="-79.95" font-family="Times New Roman,serif" font-size="14.00">ts&#45;route&#45;service</text>
</g>
<!-- ts&#45;station&#45;service -->
<g id="node2" class="node">
<title>ts&#45;station&#45;service</title>
<ellipse fill="none" stroke="black" cx="303.18" cy="-58" rx="73.87" ry="18"/>
<text xml:space="preserve" text-anchor="middle" x="303.18" y="-52.95" font-family="Times New Roman,serif" font-size="14.00">ts&#45;station&#45;service</text>
</g>
<!-- ts&#45;route&#45;service&#45;&gt;ts&#45;station&#45;service -->
<g id="edge4" class="edge">
<title>ts&#45;route&#45;service&#45;&gt;ts&#45;station&#45;service</title>
<path fill="none" stroke="black" d="M153.68,-81.69C172.37,-80.35 192.68,-78.51 211.31,-76 219.31,-74.92 227.66,-73.57 235.93,-72.11"/>
<polygon fill="black" stroke="black" points="236.41,-75.58 245.61,-70.32 235.14,-68.69 236.41,-75.58"/>
<text xml:space="preserve" text-anchor="middle" x="200.81" y="-81.62" font-family="Times New Roman,serif" font-size="14.00">Pod</text>
</g>
<!-- ts&#45;station&#45;service&#45;&gt;ts&#45;route&#45;service -->
<g id="edge2" class="edge">
<title>ts&#45;station&#45;service&#45;&gt;ts&#45;route&#45;service</title>
<path fill="none" stroke="black" d="M229.19,-56.57C216.21,-57 202.83,-57.89 190.31,-59.5 174.85,-61.49 158.36,-64.94 143.2,-68.68"/>
<polygon fill="black" stroke="black" points="142.72,-65.19 133.9,-71.05 144.45,-71.97 142.72,-65.19"/>
<text xml:space="preserve" text-anchor="middle" x="200.81" y="-62.7" font-family="Times New Roman,serif" font-size="14.00">Pod</text>
</g>
<!-- ts&#45;basic&#45;service -->
<g id="node3" class="node">
<title>ts&#45;basic&#45;service</title>
<ellipse fill="none" stroke="black" cx="514.29" cy="-58" rx="68.24" ry="18"/>
<text xml:space="preserve" text-anchor="middle" x="514.29" y="-52.95" font-family="Times New Roman,serif" font-size="14.00">ts&#45;basic&#45;service</text>
</g>
<!-- ts&#45;station&#45;service&#45;&gt;ts&#45;basic&#45;service -->
<g id="edge1" class="edge">
<title>ts&#45;station&#45;service&#45;&gt;ts&#45;basic&#45;service</title>
<path fill="none" stroke="black" d="M377.32,-58C395.75,-58 415.62,-58 434.33,-58"/>
<polygon fill="black" stroke="black" points="434.29,-61.5 444.29,-58 434.29,-54.5 434.29,-61.5"/>
<text xml:space="preserve" text-anchor="middle" x="411.55" y="-61.2" font-family="Times New Roman,serif" font-size="14.00">Pod</text>
</g>
<!-- ts&#45;basic&#45;service&#45;&gt;ts&#45;station&#45;service -->
<g id="edge3" class="edge">
<title>ts&#45;basic&#45;service&#45;&gt;ts&#45;station&#45;service</title>
<path fill="none" stroke="black" d="M466.75,-44.71C454.29,-41.73 440.75,-39.01 428.05,-37.5 406.5,-34.94 382.97,-37.48 362.27,-41.53"/>
<polygon fill="black" stroke="black" points="361.62,-38.09 352.57,-43.6 363.08,-44.93 361.62,-38.09"/>
<text xml:space="preserve" text-anchor="middle" x="411.55" y="-40.7" font-family="Times New Roman,serif" font-size="14.00">POST</text>
</g>
<!-- ts&#45;train&#45;food&#45;service -->
<g id="node4" class="node">
<title>ts&#45;train&#45;food&#45;service</title>
<ellipse fill="none" stroke="black" cx="86.15" cy="-18" rx="86.15" ry="18"/>
<text xml:space="preserve" text-anchor="middle" x="86.15" y="-12.95" font-family="Times New Roman,serif" font-size="14.00">ts&#45;train&#45;food&#45;service</text>
</g>
<!-- ts&#45;train&#45;food&#45;service&#45;&gt;ts&#45;station&#45;service -->
<g id="edge5" class="edge">
<title>ts&#45;train&#45;food&#45;service&#45;&gt;ts&#45;station&#45;service</title>
<path fill="none" stroke="black" d="M157.88,-28.28C175.38,-31.05 194.06,-34.2 211.31,-37.5 219.91,-39.14 228.94,-41.01 237.82,-42.93"/>
<polygon fill="black" stroke="black" points="236.97,-46.32 247.49,-45.05 238.47,-39.49 236.97,-46.32"/>
<text xml:space="preserve" text-anchor="middle" x="200.81" y="-40.7" font-family="Times New Roman,serif" font-size="14.00">Pod</text>
</g>
</g>
</svg>
